<?xml version="1.0" encoding="iso-8859-1"?>
<!-- Generator: Adobe Illustrator 19.0.0, SVG Export Plug-In . SVG Version: 6.00 Build 0)  -->
<svg version="1.1" id="Layer_1" xmlns="http://www.w3.org/2000/svg" xmlns:xlink="http://www.w3.org/1999/xlink" x="0px" y="0px"
	 viewBox="0 0 512.004 512.004" style="enable-background:new 0 0 512.004 512.004;" xml:space="preserve">
<g>
	<path style="fill:#6EBEC5;" d="M74.982,437.02c-99.973-99.973-99.973-262.062,0-362.04c99.973-99.973,262.062-99.973,362.04,0
		c99.973,99.973,99.973,262.062,0,362.04C337.044,536.998,174.955,536.998,74.982,437.02L74.982,437.02z"/>
	<path style="fill:#5EABB2;" d="M510.033,224.863l-0.507-0.174c0.046-1.137-0.148-2.053-0.722-2.627
		c-0.471-0.471-57.16-57.16-57.733-57.733c-0.471-0.471-1.208-0.65-2.063-0.701l-6.308-2.145l-47.887-16.297l-63.764-63.77
		c-5.545-5.545-14.372-5.704-20.178-0.594l-5.596-5.596l-58.563,58.568l6.646,6.646c-2.145,2.821-4.229,5.745-6.246,8.745
		l-0.005,0.005c-12.145,18.053-21.586,38.866-22.395,56.264c-0.333,7.168-11.151,30.536-27.827,47.217L80.88,368.673l0.036,0.036
		c-5.786,6.19-5.699,15.877,0.338,21.914l114.13,114.13c83.912,20.362,176.113-2.207,241.633-67.732
		C494.945,379.098,519.234,300.326,510.033,224.863L510.033,224.863z"/>
	<path style="fill:#F1B14F;" d="M276.771,207.88c0.333-7.173,11.156-30.546,27.827-47.222l42.394-42.394
		c5.77-5.77,5.77-15.13,0-20.9l-15.949-15.949c-5.77-5.77-15.13-5.77-20.9,0l-42.394,42.394
		c-20.449,20.449-41.795,55.055-43.039,81.644c-0.333,7.168-11.151,30.536-27.827,47.217L80.88,368.673l0.036,0.036
		c-5.786,6.19-5.699,15.877,0.338,21.914l14.525,14.525c6.036,6.036,15.724,6.124,21.914,0.338l0.036,0.036l116.009-116.009
		C254.187,269.069,275.537,234.458,276.771,207.88L276.771,207.88z"/>
	<path style="fill:#ED9E24;" d="M276.771,207.88c0.333-7.173,11.156-30.546,27.827-47.222l42.394-42.394
		c5.77-5.77,5.77-15.13,0-20.9l-8.074-8.074l-10.45,10.45l-11.279,11.279l-31.114,31.114
		c-16.676,16.676-27.494,40.049-27.827,47.222c-1.239,26.578-22.584,61.189-43.039,81.638L108.523,377.679l0.097,0.097
		l-20.106,20.106l7.265,7.265c6.036,6.036,15.724,6.124,21.914,0.338l0.036,0.036l116.009-116.009
		C254.187,269.069,275.537,234.458,276.771,207.88L276.771,207.88z"/>
	<polygon style="fill:#FFFFFF;" points="296.586,183.667 246.712,133.793 305.274,75.226 355.153,125.105 	"/>
	<polygon style="fill:#CEEAF2;" points="296.586,183.667 270.791,157.873 329.359,99.31 355.153,125.105 	"/>
	<path style="fill:#CEEAF2;" d="M355.102,135.135c-2.606-2.606-2.739-6.702-0.471-9.503l-57.518,57.513
		c2.801-2.268,6.902-2.13,9.503,0.471c2.606,2.606,2.739,6.702,0.471,9.503l57.513-57.513
		C361.804,137.874,357.703,137.736,355.102,135.135L355.102,135.135z"/>
	<path style="fill:#A6D7E6;" d="M354.626,125.627l-57.513,57.518c1.311-1.065,2.913-1.597,4.506-1.597
		c1.807,0,3.615,0.686,4.997,2.068c1.382,1.382,2.068,3.19,2.068,4.997c0,1.597-0.532,3.195-1.597,4.506l57.513-57.513
		c-1.311,1.065-2.913,1.597-4.506,1.597c-1.807,0-3.615-0.686-4.997-2.068s-2.068-3.19-2.068-4.997
		C353.028,128.54,353.566,126.943,354.626,125.627L354.626,125.627z"/>
	<path style="fill:#FFFFFF;" d="M451.076,164.334c-0.471-0.471-1.208-0.65-2.063-0.701l-83.886-28.549l-58.563,58.563l28.549,83.886
		c0.051,0.855,0.23,1.592,0.701,2.063c5.238,5.238,35.282-16.317,67.113-48.148C434.754,199.616,456.309,169.567,451.076,164.334z"
		/>
	<path style="fill:#CEEAF2;" d="M451.076,164.334c-0.471-0.471-1.208-0.65-2.063-0.701l-6.308-2.145
		c-3.62,11.259-22.595,35.768-48.282,61.455c-25.687,25.687-50.197,44.662-61.455,48.282l2.145,6.308
		c0.051,0.855,0.23,1.592,0.701,2.063c5.238,5.238,35.282-16.317,67.113-48.148C434.754,199.616,456.309,169.567,451.076,164.334z"
		/>
	<path style="fill:#5D8174;" d="M290.682,177.764c-2.12,3.154-4.024,6.287-5.699,9.298l0.005,0.005
		C286.668,184.056,288.568,180.923,290.682,177.764L290.682,177.764L290.682,177.764z"/>
	<path style="fill:#EF8533;" d="M253.357,140.439c-2.145,2.821-4.229,5.75-6.252,8.75l19.348,19.348
		c1.674-3.011,3.584-6.149,5.699-9.298L253.357,140.439L253.357,140.439z"/>
	<path style="fill:#EB7717;" d="M272.158,159.24c-2.12,3.154-4.024,6.287-5.699,9.298l18.524,18.524
		c1.674-3.011,3.584-6.149,5.699-9.298L272.158,159.24L272.158,159.24z"/>
	<polygon style="fill:#FDC0A6;" points="253.357,140.439 253.357,140.439 272.158,159.24 290.682,177.764 290.687,177.769 
		290.687,177.769 270.791,157.873 	"/>
	<polygon style="fill:#CDB09E;" points="270.791,157.873 270.791,157.873 290.687,177.769 290.687,177.769 	"/>
</g>
<g>
</g>
<g>
</g>
<g>
</g>
<g>
</g>
<g>
</g>
<g>
</g>
<g>
</g>
<g>
</g>
<g>
</g>
<g>
</g>
<g>
</g>
<g>
</g>
<g>
</g>
<g>
</g>
<g>
</g>
</svg>
